<?xml version="1.0" encoding="UTF-8"?>
<svg width="566px" height="566px" viewBox="0 0 566 566" version="1.1" xmlns="http://www.w3.org/2000/svg" xmlns:xlink="http://www.w3.org/1999/xlink">
	<title>编组 9备份 8</title>
	<defs>
		<linearGradient x1="0.137767018%" y1="-1.42108547e-12%" x2="70.6053277%" y2="75.1593916%" id="linearGradient-1">
			<stop stop-color="#8DFFC7" offset="0%"></stop>
			<stop stop-color="#38B8FF" offset="100%"></stop>
		</linearGradient>
	</defs>
	<g id="页面-1" stroke="none" stroke-width="1" fill="none" fill-rule="evenodd">
		<g
			id="编组-9备份-8"
			transform="translate(282.851022, 282.852772) rotate(-135.000000) translate(-282.851022, -282.852772) translate(82.851022, 83.352772)"
		>
			<path
				d="M203.038941,0.156507292 L203.039016,13.4138152 C112.98081,41.6841912 41.8089679,112.72767 13.2389979,202.787483 L0.948940777,202.788507 L0.953266728,0.157352183 L203.038941,0.156507292 Z"
				id="形状结合"
				fill="#FFFFFF"
			></path>
			<path
				d="M399.738,0 L399.737919,10.2758569 C330.386164,32.0812082 275.578432,86.7102825 253.525737,155.952066 L244,155.953 L244.002531,0.00078125 L399.738,0 Z"
				id="形状结合"
				fill="url(#linearGradient-1)"
				fill-rule="nonzero"
				transform="translate(321.869000, 77.976500) scale(-1, 1) translate(-321.869000, -77.976500) "
			></path>
			<path
				d="M156.738,243 L156.737919,253.275857 C87.3861641,275.081208 32.5784325,329.710282 10.5257373,398.952066 L1,398.953 L1.00253146,243.000781 L156.738,243 Z"
				id="形状结合"
				fill="#FFFFFF"
				transform="translate(78.869000, 320.976500) scale(1, -1) translate(-78.869000, -320.976500) "
			></path>
			<path
				d="M399.738,243 L399.737919,253.275857 C330.386164,275.081208 275.578432,329.710282 253.525737,398.952066 L244,398.953 L244.002531,243.000781 L399.738,243 Z"
				id="形状结合"
				fill="#FFFFFF"
				transform="translate(321.869000, 320.976500) scale(-1, -1) translate(-321.869000, -320.976500) "
			></path>
		</g>
	</g>
</svg>
